<?xml version="1.0" encoding="iso-8859-1"?>
<!-- Uploaded to: SVG Repo, www.svgrepo.com, Generator: SVG Repo Mixer Tools -->
<svg fill="#000000" version="1.1" id="Layer_1" xmlns="http://www.w3.org/2000/svg" xmlns:xlink="http://www.w3.org/1999/xlink" 
	 viewBox="0 0 511.999 511.999" xml:space="preserve">
<g>
	<g>
		<rect x="201.065" y="79.765" width="15.642" height="16.685"/>
	</g>
</g>
<g>
	<g>
		<rect x="217.75" y="96.45" width="15.642" height="14.599"/>
	</g>
</g>
<g>
	<g>
		<rect x="184.38" y="96.45" width="15.642" height="14.599"/>
	</g>
</g>
<g>
	<g>
		<path d="M387.783,53.742c-2.668-3.416-6.604-5.46-10.897-5.688v-1.191c0-8.183-6.658-14.841-14.841-14.841h-9.977
			c-4.914,0-9.265,2.411-11.967,6.1C316.177,13.719,283.798,0,248.976,0c-31.325,0-61.263,11.349-84.657,32.023h-11.413
			c-8.726,0-15.827,7.099-15.827,15.827v8.006c0,0.102-0.082,0.185-0.185,0.185c-8.727,0-15.828,7.099-15.828,15.827v40.214v7.821
			v335.445c0,31.238,25.414,56.653,56.653,56.653h142.509c31.24,0,56.654-25.414,56.654-56.653v-334.48l13.597-54.39
			C391.598,62.012,390.614,57.37,387.783,53.742z M240.688,15.949v8.547h16.685v-8.536c12.417,0.906,24.388,3.809,35.543,8.536
			h-4.259v15.642h16.685v-9.427c8.783,5.107,16.887,11.443,24.104,18.896c-2.205,1.103-4.097,2.732-5.51,4.731
			c-0.479-0.178-0.966-0.343-1.462-0.485l-32.023-9.15c-6.037-1.726-12.377-0.545-17.39,3.236c-2.534,1.911-4.52,4.332-5.866,7.068
			L247.76,35.573l-17.126,25.691c-6.488-3.317-13.82-5.208-21.587-5.223c-0.031,0-0.062,0-0.092,0c-0.002,0-0.005,0-0.007,0h-24.017
			c-0.102,0-0.186-0.083-0.186-0.185V47.85c0-3.625-1.238-6.959-3.296-9.63C198.645,25.248,219.139,17.529,240.688,15.949z
			 M361.241,152.762h-7.928v15.642h7.93v111.581H344.97v15.642h16.272v14.239l-92.437-24.65v-77.25c0-16.8-4.341-32.6-11.963-46.346
			c14.485-21.281,38.261-33.897,64.185-33.897h40.214V152.762z M136.711,397.93V266.18l224.531,59.875v12L136.711,397.93z
			 M361.242,354.243v39.235l-224.531,37.421v-16.781L361.242,354.243z M136.711,224.716v-23.985h32.024v-15.642h-32.024v-23.985
			h9.082v-15.642h-9.082v-17.739h36.212c44.246,0,80.241,35.997,80.241,80.242V248.7h-20.818v15.642h20.818v16.703l-116.453-31.054
			v-9.633h15.339v-15.642H136.711z M243.23,70.568l6.962-10.442l14.98,14.981v55.449c-6.544,4.896-12.478,10.68-17.62,17.27
			c-2.231-2.762-4.611-5.397-7.13-7.895c10.23-8.94,16.375-21.995,16.375-36.042C256.797,90.951,251.616,79.194,243.23,70.568z
			 M345.231,112.079h-24.203c-14.215,0-27.889,3.165-40.214,9.03v-9.018h7.843V96.449h-7.843V63.77c0-1.816,1.044-2.874,1.666-3.343
			c0.623-0.469,1.929-1.182,3.672-0.684l32.023,9.15c1.788,0.511,3.038,2.167,3.038,4.026v2.951h0.001v4.728l-7.742,0.212
			l0.428,15.636l27.165-0.745c2.298,0.013,4.166,1.884,4.166,4.185V112.079z M208.953,71.683c0.021,0,0.042,0,0.062,0
			c17.723,0.035,32.141,14.485,32.141,32.207c0,10.295-4.907,19.796-12.926,25.795c-14.388-10.196-31.695-16.524-50.4-17.472
			c-0.787-2.948-1.154-5.999-1.079-9.123C177.161,86.051,191.9,71.683,208.953,71.683z M136.71,71.867h0.001
			c0-0.102,0.083-0.185,0.186-0.185c8.726,0,15.827-7.101,15.827-15.827V47.85c0-0.102,0.082-0.185,0.185-0.185h16.011
			c0.102,0,0.185,0.082,0.185,0.185v8.006c0,5.619,2.951,10.549,7.376,13.358c-9.12,8.555-15.054,20.5-15.368,33.498
			c-0.077,3.175,0.168,6.302,0.697,9.368H136.71V71.867z M320.23,496.358H177.722c-22.614,0-41.011-18.397-41.011-41.011v-8.589
			l87.826-14.638l134.224,37.285C353.009,485.115,337.908,496.358,320.23,496.358z M361.243,453.86l-100.18-27.827l100.18-16.696
			V453.86z M362.956,112.081h-2.083V99.888c0-10.934-8.895-19.83-19.83-19.83c-2.309,0-4.188-1.878-4.188-4.188v-2.95v-9.243h1.17
			c8.184,0.001,14.841-6.657,14.841-14.84v-1.17h8.376v1.17c0,7.842,6.113,14.282,13.823,14.807L362.956,112.081z"/>
	</g>
</g>
<g>
	<g>
		<rect x="313.689" y="168.404" width="15.642" height="15.642"/>
	</g>
</g>
<g>
	<g>
		<rect x="329.331" y="185.089" width="15.642" height="15.642"/>
	</g>
</g>
<g>
	<g>
		<rect x="305.346" y="232.015" width="23.985" height="15.642"/>
	</g>
</g>
<g>
	<g>
		<rect x="288.661" y="248.7" width="16.685" height="15.642"/>
	</g>
</g>
<g>
	<g>
		<rect x="168.738" y="200.731" width="32.327" height="15.642"/>
	</g>
</g>
<g>
	<g>
		<rect x="201.065" y="145.462" width="15.642" height="15.642"/>
	</g>
</g>
<g>
	<g>
		<rect x="192.723" y="232.015" width="15.642" height="15.642"/>
	</g>
</g>
<g>
	<g>
		<rect x="208.365" y="31.795" width="16.685" height="15.642"/>
	</g>
</g>
<g>
	<g>
		<rect x="168.738" y="465.605" width="96.982" height="15.642"/>
	</g>
</g>
<g>
	<g>
		<rect x="280.319" y="465.605" width="25.028" height="15.642"/>
	</g>
</g>
</svg>