<?xml version="1.0" encoding="iso-8859-1"?>
<!-- Uploaded to: SVG Repo, www.svgrepo.com, Generator: SVG Repo Mixer Tools -->
<svg fill="#000000" height="800px" width="800px" version="1.1" id="Capa_1" xmlns="http://www.w3.org/2000/svg" xmlns:xlink="http://www.w3.org/1999/xlink" 
	 viewBox="0 0 469.975 469.975" xml:space="preserve">
<g>
	<path d="M408.873,116.556c-12.315-5.375-23.407-12.947-32.966-22.507c-9.558-9.558-17.129-20.647-22.504-32.959
		c-1.657-3.796-6.076-5.529-9.874-3.873c-3.796,1.657-5.53,6.078-3.873,9.874c6.128,14.037,14.756,26.676,25.645,37.564
		c10.891,10.891,23.532,19.52,37.573,25.648c0.977,0.426,1.994,0.628,2.996,0.628c2.892,0,5.647-1.683,6.878-4.502
		C414.404,122.634,412.67,118.214,408.873,116.556z"/>
	<path d="M154.616,328.336L141.62,315.34c-2.478-2.478-6.34-2.909-9.304-1.041L15.744,387.817c0.593,2.527,1.556,5.011,2.92,7.372
		c1.382,2.394,2.757,4.293,4.178,5.886l95.938-60.504l-75.298,75.298c1.805,1.434,3.672,3.071,5.604,5.003
		c1.932,1.932,3.569,3.799,5.003,5.604l75.298-75.298l-60.504,95.938c1.593,1.421,3.492,2.796,5.886,4.178
		c2.335,1.348,4.813,2.327,7.364,2.932l73.524-116.583C157.526,334.677,157.093,330.814,154.616,328.336z"/>
	<path d="M201.121,237.015c-1.417,1.417-3.3,2.197-5.303,2.197s-3.887-0.78-5.303-2.197c-1.417-1.416-2.197-3.299-2.197-5.303
		c0-2.003,0.78-3.887,2.197-5.303c2.929-2.929,2.929-7.678,0-10.606c-2.929-2.929-7.678-2.929-10.606,0
		c-4.25,4.25-6.59,9.9-6.59,15.91c0,6.01,2.341,11.661,6.59,15.91c4.25,4.25,9.9,6.59,15.91,6.59s11.66-2.34,15.91-6.59
		c2.929-2.929,2.929-7.678,0-10.606C208.798,234.087,204.049,234.087,201.121,237.015z"/>
	<path d="M356.684,166.305c-1.417,1.417-3.3,2.197-5.303,2.197s-3.887-0.78-5.303-2.197s-2.197-3.3-2.197-5.304
		c0-2.003,0.78-3.887,2.197-5.303c2.929-2.929,2.929-7.678,0-10.606c-2.929-2.929-7.678-2.929-10.606,0
		c-8.773,8.773-8.773,23.047,0,31.82c4.25,4.25,9.9,6.59,15.91,6.59s11.66-2.34,15.91-6.59c2.929-2.929,2.929-7.678,0-10.606
		C364.362,163.376,359.613,163.376,356.684,166.305z"/>
	<path d="M250.618,229.945c-1.417,1.417-3.3,2.197-5.303,2.197c-2.003,0-3.887-0.78-5.303-2.197s-2.197-3.3-2.197-5.304
		c0-2.003,0.78-3.887,2.197-5.303c2.929-2.929,2.929-7.678,0-10.606c-2.929-2.929-7.678-2.929-10.606,0
		c-4.25,4.25-6.59,9.9-6.59,15.91c0,6.01,2.34,11.661,6.59,15.91s9.9,6.59,15.91,6.59c6.01,0,11.66-2.34,15.91-6.59
		c2.929-2.929,2.929-7.678,0-10.606C258.296,227.016,253.547,227.016,250.618,229.945z"/>
	<path d="M257.69,180.447c-1.417,1.417-3.3,2.197-5.303,2.197c-2.003,0-3.887-0.78-5.304-2.197s-2.197-3.3-2.197-5.304
		c0-2.003,0.78-3.887,2.197-5.303c2.929-2.929,2.929-7.678,0-10.606c-2.929-2.929-7.678-2.929-10.606,0
		c-8.773,8.773-8.773,23.047,0,31.82c4.386,4.387,10.148,6.58,15.91,6.58c5.762,0,11.524-2.193,15.91-6.58
		c2.929-2.929,2.929-7.678,0-10.606C265.367,177.518,260.618,177.518,257.69,180.447z"/>
	<path d="M457.201,12.756c-18.951-18.951-56.378-16.692-105.388,6.36c-15.309,7.201-31.145,16.128-46.989,26.402l-28.919-18.115
		c-2.691-1.685-6.151-1.494-8.639,0.478c-25.697,20.363-50.715,44.341-72.35,69.341c-27.662,31.966-52.746,70.801-70.631,109.351
		c-0.483,1.042-0.721,2.18-0.695,3.328l0.934,40.995c-6.613,14.858-11.951,29.483-15.852,43.589L21.123,345.03
		c-9.764,5.637-16.749,14.739-19.667,25.63c-2.918,10.89-1.421,22.265,4.217,32.029c0.05,0.086,0.1,0.164,0.15,0.249
		c6.28,10.754,13.13,14.916,19.758,18.932c4.294,2.602,8.349,5.06,12.897,9.607c4.547,4.548,7.005,8.603,9.607,12.897
		c4.017,6.627,8.178,13.478,18.93,19.756c0.088,0.051,0.165,0.102,0.252,0.152c6.504,3.755,13.722,5.674,21.036,5.673
		c3.666,0,7.357-0.482,10.993-1.456c10.89-2.918,19.992-9.902,25.629-19.667l50.546-87.548
		c20.312-5.625,41.719-14.274,63.167-25.303c6.027,3.989,13.328,5.972,21.024,5.971c10.874,0,22.53-3.945,32.468-11.73
		c13.992-10.961,21.602-26.889,20.308-41.742c12.088-9.459,23.735-19.512,34.73-30.011c2.281,0.277,4.586,0.43,6.914,0.43
		c18.225,0,37.521-8.371,52.436-23.204c21.325-21.21,28.974-50.616,19.524-73.139c17.413-27.261,30.532-53.997,37.613-76.963
		C473.891,52.4,471.658,27.213,457.201,12.756z M399.755,174.688c-2.406,3.372-1.623,8.056,1.749,10.461
		c1.321,0.942,2.842,1.396,4.35,1.396c2.341,0,4.648-1.093,6.111-3.144c0.97-1.36,1.914-2.721,2.866-4.082
		c1.285,15.027-5.566,32.49-18.889,45.741c-9.799,9.746-21.741,16.063-33.496,18.118c10.783-11.272,21.232-23.175,31.144-35.522
		c2.593-3.23,2.077-7.951-1.152-10.544c-3.23-2.594-7.951-2.078-10.544,1.152c-12.033,14.986-24.863,29.314-38.134,42.586
		c-50.757,50.757-117.869,91.662-175.145,106.751c-1.934,0.509-3.584,1.771-4.584,3.502l-52.095,90.23
		c-3.634,6.294-9.501,10.796-16.521,12.677c-4.416,1.184-8.955,1.239-13.283,0.213c-2.552-0.605-5.03-1.584-7.364-2.932
		c-2.394-1.382-4.293-2.757-5.886-4.178c-3.472-3.098-5.484-6.416-7.968-10.514c-1.88-3.103-3.933-6.484-6.826-10.125
		c-1.434-1.805-3.071-3.672-5.003-5.604c-1.932-1.932-3.799-3.569-5.604-5.003c-3.642-2.893-7.023-4.946-10.125-6.826
		c-4.098-2.484-7.416-4.496-10.514-7.967c-1.421-1.593-2.796-3.492-4.178-5.886c-1.363-2.361-2.326-4.845-2.92-7.372
		c-2.671-11.379,2.247-23.658,12.879-29.797l90.23-52.095c1.732-1,2.993-2.65,3.502-4.584
		c8.594-32.623,25.404-68.448,48.613-103.603c2.282-3.457,1.33-8.109-2.127-10.391c-3.455-2.282-8.108-1.33-10.391,2.126
		c-7.124,10.79-13.662,21.656-19.583,32.492l-0.243-10.655c17.263-36.8,41.235-73.769,67.633-104.274
		c19.872-22.964,42.676-45.036,66.198-64.095l18.746,11.743c-25.3,17.634-50.242,38.443-72.702,60.905
		c-14.841,14.84-29.126,31.327-42.458,49c-2.494,3.307-1.835,8.01,1.471,10.504c3.308,2.496,8.01,1.835,10.504-1.471
		c12.914-17.12,26.738-33.077,41.089-47.427c39.341-39.341,86.393-73.423,129.09-93.507c42.238-19.867,74.458-23.267,88.397-9.327
		C467.604,44.372,448.343,106.599,399.755,174.688z M282.881,318.415c-8.44,6.612-18.647,9.447-27.116,8.258
		c13.567-7.769,27.035-16.427,40.14-25.811C293.628,307.273,289.11,313.536,282.881,318.415z"/>
	<path d="M316.635,73.72c-21.252,14.171-42.706,31.055-62.043,48.826c-3.05,2.803-3.25,7.547-0.448,10.597
		c1.479,1.609,3.499,2.425,5.524,2.425c1.813,0,3.632-0.654,5.073-1.978c18.776-17.255,39.598-33.642,60.216-47.391
		c3.446-2.298,4.377-6.955,2.079-10.401C324.738,72.353,320.082,71.424,316.635,73.72z"/>
	<path d="M421.598,29.907c-7.555,0-24.266,1.786-51.306,13.749c-3.788,1.676-5.5,6.105-3.825,9.893
		c1.24,2.802,3.985,4.468,6.863,4.468c1.014,0,2.044-0.207,3.03-0.643c24.518-10.847,38.867-12.467,45.237-12.467
		c4.142,0,7.5-3.358,7.5-7.5S425.74,29.907,421.598,29.907z"/>
</g>
</svg>