<?xml version="1.0" encoding="iso-8859-1"?>
<!-- Uploaded to: SVG Repo, www.svgrepo.com, Generator: SVG Repo Mixer Tools -->
<svg fill="#000000" version="1.1" id="Layer_1" xmlns="http://www.w3.org/2000/svg" xmlns:xlink="http://www.w3.org/1999/xlink" 
	 viewBox="0 0 512 512" xml:space="preserve">
<g>
	<g>
		<path d="M379.734,127.927h-31.787v319.819H68.106V127.929H52.115v335.81h311.824v-39.978h23.987v-72.376
			c40.347-4.124,71.959-38.349,71.959-79.734v-63.571C459.885,163.884,423.93,127.927,379.734,127.927z M371.934,407.77h-7.996
			v-55.968h7.996V407.77z M443.894,271.651c0,35.281-28.703,64.063-63.985,64.159h-15.97V143.919h15.795
			c35.377,0,64.16,28.782,64.16,64.16V271.651z"/>
	</g>
</g>
<g>
	<g>
		<path d="M64.017,472.198v15.711h7.332V512h264.995v-24.09h7.332v-15.711H64.017z M320.632,496.289H87.06v-8.379h233.572V496.289z"
			/>
	</g>
</g>
<g>
	<g>
		<path d="M331.283,64.637c-3.45-18.558-19.763-32.654-39.305-32.654h-48.612C232.012,12.399,210.824,0,188.038,0
			c-22.785,0-43.973,12.399-55.327,31.983h-8.636c-19.543,0-35.855,14.096-39.305,32.654c-18.558,3.45-32.655,19.763-32.655,39.305
			v15.992h36.419c10.779-0.001,19.549,8.769,19.549,19.549v20.428c0,8.732,3.635,17.189,9.97,23.201
			c6.426,6.098,14.844,9.206,23.72,8.735c16.976-0.889,30.274-15.513,30.274-33.294v-2.641c0-3.382,1.439-6.626,3.95-8.897
			c2.543-2.302,5.845-3.378,9.308-3.032c6.014,0.602,10.727,6.342,10.727,13.069v66.822c0,8.732,3.635,17.189,9.97,23.201
			c6.005,5.699,13.756,8.781,21.985,8.781c0.576,0,1.154-0.015,1.736-0.046c16.975-0.889,30.273-15.513,30.273-33.294v-83.033
			c0-10.78,8.77-19.55,19.55-19.55h84.391v-15.991C363.937,84.399,349.841,68.087,331.283,64.637z M279.546,103.941
			c-19.597,0-35.542,15.944-35.542,35.542v83.033c0,9.117-6.783,16.888-15.119,17.325c-4.449,0.232-8.665-1.318-11.878-4.367
			c-3.214-3.051-4.986-7.172-4.986-11.602v-66.822c0-14.841-11.037-27.57-25.125-28.981c-0.935-0.093-1.872-0.14-2.804-0.14
			c-6.933,0-13.67,2.56-18.827,7.226c-5.854,5.298-9.212,12.862-9.212,20.754v2.641c0,9.117-6.783,16.888-15.12,17.325
			c-4.439,0.235-8.665-1.318-11.876-4.366c-3.216-3.051-4.987-7.172-4.987-11.602V139.48c0-19.597-15.945-35.541-35.542-35.541
			H68.106c0-13.225,10.761-23.985,23.988-23.985h7.996v-7.996c0-13.226,10.759-23.986,23.986-23.986h18.503l2.17-4.56
			c7.926-16.658,24.918-27.422,43.289-27.422s35.364,10.763,43.289,27.422l2.17,4.56h58.481c13.227,0,23.986,10.76,23.986,23.986
			v7.996h7.996c13.226,0,23.986,10.76,23.986,23.986H279.546z"/>
	</g>
</g>
<g>
	<g>
		<rect x="88.108" y="416.68" width="151.874" height="15.711"/>
	</g>
</g>
<g>
	<g>
		<rect x="256.741" y="416.68" width="63.892" height="15.711"/>
	</g>
</g>
<g>
	<g>
		<rect x="80.776" y="199.867" width="15.711" height="32.47"/>
	</g>
</g>
<g>
	<g>
		<rect x="103.819" y="232.336" width="15.711" height="15.711"/>
	</g>
</g>
<g>
	<g>
		<rect x="144.668" y="279.47" width="15.711" height="56.56"/>
	</g>
</g>
<g>
	<g>
		<rect x="160.379" y="336.03" width="15.711" height="15.711"/>
	</g>
</g>
<g>
	<g>
		<rect x="192.849" y="295.181" width="15.711" height="15.711"/>
	</g>
</g>
<g>
	<g>
		<rect x="279.784" y="135.975" width="15.711" height="48.181"/>
	</g>
</g>
<g>
	<g>
		<rect x="296.543" y="184.156" width="15.711" height="63.892"/>
	</g>
</g>
<g>
	<g>
		<rect x="312.254" y="160.065" width="15.711" height="15.711"/>
	</g>
</g>
<g>
	<g>
		<rect x="80.776" y="310.892" width="15.711" height="48.181"/>
	</g>
</g>
<g>
	<g>
		<rect x="112.199" y="375.831" width="15.711" height="15.711"/>
	</g>
</g>
<g>
	<g>
		<rect x="264.073" y="295.181" width="15.711" height="32.47"/>
	</g>
</g>
<g>
	<g>
		<rect x="279.784" y="327.651" width="15.711" height="48.181"/>
	</g>
</g>
<g>
	<g>
		<rect x="224.271" y="375.831" width="15.711" height="15.711"/>
	</g>
</g>
<g>
	<g>
		<path d="M116.079,87.799h15.992c-0.001-4.19,3.169-7.844,8.406-7.844V63.964C126.861,63.964,116.079,75.23,116.079,87.799z"/>
	</g>
</g>
</svg>