<?xml version="1.0" encoding="iso-8859-1"?>
<!-- Uploaded to: SVG Repo, www.svgrepo.com, Generator: SVG Repo Mixer Tools -->
<svg fill="#000000" height="800px" width="800px" version="1.1" id="Layer_1" xmlns="http://www.w3.org/2000/svg" xmlns:xlink="http://www.w3.org/1999/xlink" 
	 viewBox="0 0 511.999 511.999" xml:space="preserve">
<g>
	<g>
		<path d="M409.496,173.369v-46.023c0-20.62-16.775-37.394-37.394-37.394h-54.65V63.283h3.398c5.632,0,10.199-4.567,10.199-10.199
			V24.32c0-13.411-10.909-24.32-24.32-24.32H205.27c-13.41,0-24.32,10.909-24.32,24.32v28.764c0,5.632,4.566,10.199,10.199,10.199
			h3.398v26.669h-54.65c-20.62,0-37.394,16.775-37.394,37.394v46.023c0,10.707,4.53,20.371,11.768,27.194
			c-7.237,6.823-11.768,16.487-11.768,27.195v46.022c0,10.708,4.53,20.372,11.768,27.195c-7.237,6.823-11.768,16.487-11.768,27.195
			v46.022c0,10.708,4.53,20.372,11.768,27.195c-7.237,6.823-11.768,16.487-11.768,27.195v46.022
			c0,20.62,16.775,37.394,37.394,37.394h232.203c20.62,0,37.394-16.775,37.394-37.394v-46.022c0-10.708-4.531-20.372-11.768-27.195
			c7.237-6.823,11.768-16.487,11.768-27.195v-46.022c0-10.708-4.531-20.372-11.768-27.195c7.237-6.823,11.768-16.487,11.768-27.195
			v-46.022c0-10.708-4.531-20.372-11.768-27.195C404.966,193.741,409.496,184.077,409.496,173.369z M201.35,24.32
			c0-2.162,1.759-3.922,3.922-3.922H306.73c2.162,0,3.922,1.759,3.922,3.922v18.565H201.35V24.32z M297.053,63.283v26.669h-82.106
			V63.283h0H297.053z M389.098,474.606c0,9.371-7.625,16.996-16.996,16.996H139.898c-9.371,0-16.996-7.625-16.996-16.996v-46.022
			c0-9.371,7.625-16.996,16.996-16.996h232.203c9.371,0,16.996,7.624,16.996,16.996V474.606z M389.098,374.193
			c0,9.371-7.625,16.996-16.996,16.996H139.898c-9.371,0-16.996-7.625-16.996-16.996v-46.022c0-9.371,7.625-16.996,16.996-16.996
			h232.203c9.371,0,16.996,7.624,16.996,16.996V374.193z M389.098,273.781c0,9.371-7.625,16.996-16.996,16.996H139.898
			c-9.371,0-16.996-7.625-16.996-16.996v-46.022c0-9.371,7.625-16.996,16.996-16.996h232.203
			c9.371-0.001,16.996,7.624,16.996,16.996V273.781z M389.098,173.369c0,9.371-7.625,16.995-16.996,16.995H139.898
			c-9.371,0-16.996-7.624-16.996-16.995v-46.023c0-9.371,7.625-16.996,16.996-16.996h232.203c9.371,0,16.996,7.625,16.996,16.996
			V173.369z"/>
	</g>
</g>
<g>
	<g>
		<path d="M217.299,462.315h-73.217c-5.633,0-10.199,4.567-10.199,10.199s4.566,10.199,10.199,10.199h73.217
			c5.633,0,10.199-4.567,10.199-10.199S222.932,462.315,217.299,462.315z"/>
	</g>
</g>
<g>
	<g>
		<path d="M254.954,462.315h-6.276c-5.633,0-10.199,4.567-10.199,10.199s4.566,10.199,10.199,10.199h6.276
			c5.632,0,10.199-4.567,10.199-10.199S260.586,462.315,254.954,462.315z"/>
	</g>
</g>
</svg>