<?xml version="1.0" encoding="iso-8859-1"?>
<!-- Uploaded to: SVG Repo, www.svgrepo.com, Generator: SVG Repo Mixer Tools -->
<svg fill="#000000" height="800px" width="800px" version="1.1" id="Capa_1" xmlns="http://www.w3.org/2000/svg" xmlns:xlink="http://www.w3.org/1999/xlink" 
	 viewBox="0 0 470 470" xml:space="preserve">
<g>
	<path d="M157.539,243.033c0.484,0.095,0.967,0.14,1.443,0.14c3.517,0,6.655-2.485,7.353-6.066
		c2.016-10.346,6.285-19.907,12.688-28.42l7.834-10.416c1.249-1.661,1.753-3.766,1.392-5.813l-7.214-40.841
		c-0.721-4.079-4.609-6.805-8.69-6.081c-4.079,0.721-6.801,4.611-6.081,8.69l6.647,37.632l-5.875,7.813
		c-7.78,10.343-12.969,21.973-15.422,34.566C150.82,238.303,153.474,242.241,157.539,243.033z"/>
	<path d="M235.001,335.637c4.142,0,7.5-3.357,7.5-7.5s-3.358-7.5-7.5-7.5c-33.073,0-61.898-23.501-68.541-55.879
		c-0.833-4.058-4.798-6.671-8.854-5.84c-4.058,0.832-6.672,4.796-5.84,8.854C159.834,307.096,194.839,335.637,235.001,335.637z"/>
	<path d="M332.112,455h-13.535c-20.213-19.822-47.45-31.808-76.077-33.601v-56.013c59.909-3.877,107.465-53.842,107.465-114.714
		c0-24.022-7.278-46.896-21.082-66.366l20.968-118.673c0.386-2.184-0.214-4.426-1.64-6.125c-1.425-1.698-3.529-2.68-5.746-2.68
		H242.5V32.5c0-9.649,7.851-17.5,17.5-17.5h75.119c4.142,0,7.5-3.357,7.5-7.5s-3.358-7.5-7.5-7.5H260
		c-17.92,0-32.5,14.579-32.5,32.5v24.328h-99.965c-2.217,0-4.321,0.981-5.746,2.68c-1.425,1.699-2.025,3.941-1.64,6.125
		l20.968,118.673c-13.804,19.472-21.082,42.346-21.082,66.366c0,60.871,47.556,110.836,107.466,114.714v56.013
		c-28.627,1.793-55.864,13.779-76.077,33.601h-13.535c-4.142,0-7.5,3.357-7.5,7.5s3.358,7.5,7.5,7.5h194.224
		c4.142,0,7.5-3.357,7.5-7.5S336.254,455,332.112,455z M235,436.154c21.693,0,42.783,6.725,60.147,18.846H174.853
		C192.217,442.879,213.308,436.154,235,436.154z M155.052,190.654c1.249-1.661,1.753-3.767,1.392-5.813l-10.94-61.92l-9.027-51.094
		H227.5v43.596h-59.612c-4.141,0-7.499,3.356-7.5,7.498c0,4.145,3.358,7.502,7.5,7.502h155.283l-9.615,54.418
		c-0.361,2.047,0.143,4.151,1.392,5.813c13.096,17.414,20.018,38.168,20.018,60.018c0,55.121-44.844,99.965-99.965,99.965
		s-99.966-44.844-99.966-99.965C135.034,228.823,141.956,208.07,155.052,190.654z M325.821,115.424H242.5V71.828h91.024
		L325.821,115.424z"/>
</g>
</svg>