<?xml version="1.0" encoding="iso-8859-1"?>
<!-- Uploaded to: SVG Repo, www.svgrepo.com, Generator: SVG Repo Mixer Tools -->
<!DOCTYPE svg PUBLIC "-//W3C//DTD SVG 1.1//EN" "http://www.w3.org/Graphics/SVG/1.1/DTD/svg11.dtd">
<svg fill="#000000" version="1.1" id="Capa_1" xmlns="http://www.w3.org/2000/svg" xmlns:xlink="http://www.w3.org/1999/xlink" 
	 width="800px" height="800px" viewBox="0 0 178.936 178.937"
	 xml:space="preserve">
<g>
	<path d="M15.229,0l35.852,178.937h76.772L163.708,0H15.229z M148.93,12.105l-4.787,23.903H34.791l-4.793-23.903H148.93z
		 M117.934,166.831H60.999L37.214,48.114h104.505L117.934,166.831z M128.81,79.382c0,10.03-8.139,18.158-18.157,18.158
		c-10.025,0-18.161-8.128-18.161-18.158c0-10.031,8.136-18.158,18.161-18.158C120.671,61.224,128.81,69.351,128.81,79.382z
		 M98.544,113.682c0,6.142-4.962,11.101-11.101,11.101c-6.126,0-11.089-4.959-11.089-11.101c0-6.13,4.962-11.089,11.089-11.089
		C93.582,102.593,98.544,107.552,98.544,113.682z M70.799,83.419c-4.729,0-8.571-3.836-8.571-8.577c0-4.734,3.842-8.57,8.571-8.57
		c4.74,0,8.576,3.842,8.576,8.57C79.375,79.588,75.54,83.419,70.799,83.419z M112.674,147.987c0,4.451-3.624,8.062-8.074,8.062
		c-4.457,0-8.077-3.611-8.077-8.062c0-4.45,3.62-8.073,8.077-8.073C109.05,139.914,112.674,143.537,112.674,147.987z
		 M80.115,135.126c0,3.05-2.471,5.532-5.533,5.532c-3.05,0-5.533-2.482-5.533-5.532c0-3.062,2.482-5.532,5.533-5.532
		C77.644,129.594,80.115,132.064,80.115,135.126z"/>
</g>
</svg>