<?xml version="1.0" encoding="iso-8859-1"?>
<!-- Uploaded to: SVG Repo, www.svgrepo.com, Generator: SVG Repo Mixer Tools -->
<svg fill="#000000" height="800px" width="800px" version="1.1" id="Layer_1" xmlns="http://www.w3.org/2000/svg" xmlns:xlink="http://www.w3.org/1999/xlink" 
	 viewBox="0 0 511.999 511.999" xml:space="preserve">
<g>
	<g>
		<path d="M218.123,129.51c-0.518-4.793-4.829-8.26-9.614-7.737c-8.153,0.883-16.218,2.082-23.97,3.562
			c-4.734,0.903-7.839,5.475-6.935,10.208c0.798,4.181,4.457,7.092,8.562,7.092c0.542,0,1.094-0.051,1.646-0.157
			c7.291-1.392,14.887-2.52,22.574-3.352C215.178,138.607,218.642,134.302,218.123,129.51z"/>
	</g>
</g>
<g>
	<g>
		<path d="M398.128,75.626c-3.872-2.872-9.338-2.06-12.207,1.814c-2.871,3.872-2.058,9.338,1.814,12.207
			c18.484,13.701,28.253,29.986,28.253,47.091c0,2.352-0.19,4.727-0.562,7.06c-1.98,12.377-9.117,24.06-21.213,34.723
			c-11.439,10.085-26.71,18.722-45.391,25.673c-4.517,1.68-6.816,6.705-5.136,11.223c1.308,3.514,4.638,5.687,8.18,5.687
			c1.011,0,2.039-0.177,3.042-0.55c12.349-4.594,23.412-9.92,33.107-15.91l-27.682,173.025c-1.033-4.216-5.063-7.099-9.488-6.581
			c-7.22,0.851-14.555,1.282-21.804,1.282c-33.244,0-65.436-8.658-95.682-25.737c-4.196-2.37-9.519-0.888-11.89,3.308
			c-2.37,4.197-0.889,9.521,3.308,11.89c32.896,18.573,67.974,27.992,104.263,27.992c7.928,0,15.95-0.471,23.846-1.401
			c2.732-0.322,5.016-1.876,6.372-4.039l-11.053,69.084c-0.493,3.08-1.9,6.175-4.13,9.21c-21.193,5.702-42.982,8.598-64.812,8.598
			c-37.837,0-74.855-8.549-110.026-25.41c-4.348-2.082-9.558-0.249-11.642,4.097c-2.084,4.346-0.249,9.559,4.097,11.642
			c37.545,17.999,77.101,27.125,117.571,27.125c6.098,0,12.193-0.211,18.274-0.631c-16.018,4.204-34.268,6.449-53.182,6.449
			c-27.482,0-53.559-4.737-73.429-13.34c-17.74-7.681-28.827-17.791-30.42-27.74l-37.526-234.554
			c14.411,33.653,33.177,63.591,55.969,89.17c1.724,1.935,4.117,2.921,6.518,2.921c2.065,0,4.14-0.728,5.803-2.211
			c3.598-3.207,3.916-8.724,0.71-12.321c-20.868-23.419-38.195-50.756-51.686-81.472c4.318,1.953,8.817,3.808,13.509,5.554
			c1.003,0.374,2.032,0.55,3.042,0.55c3.542,0,6.873-2.172,8.18-5.687c1.68-4.517-0.619-9.542-5.136-11.223
			c-18.68-6.95-33.953-15.588-45.392-25.673c-12.096-10.663-19.232-22.345-21.211-34.72c-0.374-2.335-0.562-4.711-0.562-7.063
			c0-23.795,18.739-45.599,52.766-61.397c31.897-14.809,74.111-22.964,118.865-22.964c14.082,0,28.084,0.816,41.616,2.424
			c4.789,0.565,9.127-2.851,9.696-7.637s-2.851-9.127-7.637-9.696c-14.215-1.69-28.91-2.546-43.677-2.546
			c-47.24,0-92.064,8.732-126.216,24.587c-40.542,18.824-62.869,46.251-62.869,77.228c0,3.271,0.263,6.574,0.782,9.82
			c2.497,15.607,10.754,30.024,24.539,42.901l42.68,266.765c2.59,16.193,17.051,30.753,40.72,41
			c22.01,9.529,50.55,14.777,80.364,14.777c29.814,0,58.355-5.248,80.364-14.777c13.385-5.795,23.822-12.971,30.837-21.039
			c0.106-0.119,0.208-0.24,0.307-0.363c5.207-6.098,8.472-12.698,9.575-19.597l42.68-266.766
			c13.785-12.876,22.043-27.295,24.54-42.903c0.518-3.243,0.781-6.545,0.781-9.816C433.442,113.884,421.231,92.752,398.128,75.626z"
			/>
	</g>
</g>
<g>
	<g>
		<path d="M454.7,16.127c-2.69-6.454-7.732-11.477-14.199-14.14c-6.47-2.665-13.586-2.647-20.037,0.043L302.413,51.217
			c-21.115,8.799-37.034,27.3-42.582,49.493l-4.835,19.34c-3.543-0.109-7.096-0.183-10.639-0.183c-4.82,0-8.727,3.907-8.727,8.727
			c0,4.82,3.907,8.727,8.727,8.727c2.097,0,4.199,0.042,6.3,0.083l-2.844,11.375c-1.793,7.174-0.436,14.794,3.717,20.905
			l0.294,0.434c2.707,3.988,8.134,5.026,12.122,2.318c3.988-2.708,5.026-8.135,2.318-12.122l-0.297-0.438
			c-1.364-2.007-1.809-4.509-1.221-6.864l5.443-21.773c0.008-0.029,0.015-0.058,0.022-0.088l6.552-26.207
			c4.217-16.866,16.315-30.927,32.363-37.615l118.053-49.19c2.148-0.896,4.517-0.902,6.673-0.014s3.838,2.562,4.734,4.714
			c0.897,2.153,0.902,4.524,0.014,6.68c-0.888,2.156-2.561,3.836-4.714,4.732L315.838,83.44
			c-10.98,4.576-19.256,14.198-22.141,25.738l-12.103,48.407c-0.543,2.177-1.897,4.024-3.807,5.198
			c-4.105,2.524-5.387,7.9-2.864,12.005c1.649,2.681,4.51,4.158,7.442,4.158c1.558,0,3.137-0.418,4.563-1.294
			c5.823-3.58,9.942-9.203,11.599-15.834l4.716-18.863c21.168,4.246,39.936,10.749,54.508,18.867
			c-22.49,12.868-60.851,24.373-113.395,24.373c-52.541,0-90.901-11.503-113.391-24.372c7.325-4.088,15.707-7.779,25.093-11.013
			c4.557-1.571,6.978-6.537,5.407-11.094c-1.571-4.557-6.538-6.978-11.094-5.407c-13.335,4.595-24.976,10.1-34.761,16.382
			c-4.622-4.462-7.268-8.739-7.854-12.402c-0.083-0.515-0.125-1.037-0.125-1.548c0-7.276,10.068-19.292,32.559-29.736
			c4.372-2.029,6.269-7.219,4.24-11.591c-2.029-4.372-7.219-6.269-11.591-4.24c-27.112,12.588-42.662,29.197-42.662,45.567
			c0,1.431,0.116,2.88,0.343,4.304c2.485,15.539,19.151,31.182,45.72,42.918c20.33,8.979,55.589,19.685,108.114,19.685
			c52.523,0,87.782-10.704,108.114-19.685c26.57-11.735,43.235-27.377,45.72-42.917c0.228-1.427,0.343-2.875,0.343-4.305
			c0-16.37-15.549-32.978-42.661-45.565c-4.37-2.032-9.56-0.131-11.591,4.241c-2.029,4.372-0.131,9.56,4.241,11.591
			c22.49,10.442,32.556,22.458,32.556,29.735c0,0.511-0.042,1.034-0.124,1.551c-0.586,3.663-3.234,7.939-7.856,12.402
			c-16.907-10.819-39.707-19.395-65.62-24.685l3.149-12.596c1.553-6.214,6.011-11.394,11.923-13.86L440.6,50.367
			c6.456-2.689,11.477-7.732,14.14-14.198C457.404,29.699,457.389,22.582,454.7,16.127z"/>
	</g>
</g>
<g>
	<g>
		<path d="M160.579,349.096h-11.636c-4.821,0-8.727,3.907-8.727,8.727s3.906,8.727,8.727,8.727h11.636
			c4.821,0,8.727-3.907,8.727-8.727S165.4,349.096,160.579,349.096z"/>
	</g>
</g>
<g>
	<g>
		<path d="M339.773,349.096h-11.636c-4.821,0-8.727,3.907-8.727,8.727s3.907,8.727,8.727,8.727h11.636
			c4.821,0,8.727-3.907,8.727-8.727S344.594,349.096,339.773,349.096z"/>
	</g>
</g>
<g>
	<g>
		<circle cx="186.176" cy="334.548" r="17.454"/>
	</g>
</g>
<g>
	<g>
		<circle cx="302.536" cy="334.548" r="17.454"/>
	</g>
</g>
<g>
	<g>
		<path d="M366.492,283.166c-33.037-5.984-64.274-26.367-87.957-57.396c-2.924-3.831-8.401-4.566-12.233-1.642
			c-3.831,2.924-4.566,8.401-1.642,12.233c26.331,34.496,61.391,57.218,98.72,63.979c0.527,0.095,1.051,0.142,1.566,0.142
			c4.139,0,7.814-2.957,8.577-7.174C374.382,288.567,371.235,284.025,366.492,283.166z"/>
	</g>
</g>
</svg>